<svg width="60" height="60" viewBox="0 0 60 60" fill="none" xmlns="http://www.w3.org/2000/svg">
<g id="&#208;&#161;&#209;&#130;&#209;&#128;&#208;&#181;&#208;&#187;&#208;&#186;&#208;&#176; &#208;&#189;&#208;&#176;&#208;&#183;&#208;&#176;&#208;&#180;">
<path id="Vector" d="M46.8558 27.5002H17.6079L26.5598 16.6002C26.9784 16.0897 27.1798 15.4315 27.1197 14.7704C27.0595 14.1093 26.7428 13.4995 26.2392 13.0752C25.7356 12.6509 25.0863 12.4467 24.4342 12.5076C23.7821 12.5686 23.1806 12.8897 22.762 13.4002L10.4316 28.4002C10.3486 28.5195 10.2744 28.6448 10.2096 28.7752C10.2096 28.9002 10.2096 28.9752 10.037 29.1002C9.92523 29.3868 9.8667 29.692 9.86438 30.0002C9.8667 30.3084 9.92523 30.6136 10.037 30.9002C10.037 31.0252 10.037 31.1002 10.2096 31.2252C10.2744 31.3556 10.3486 31.4809 10.4316 31.6002L22.762 46.6002C22.9939 46.8824 23.2843 47.1094 23.6125 47.2649C23.9407 47.4205 24.2986 47.5008 24.6609 47.5002C25.2371 47.5013 25.7955 47.2979 26.2392 46.9252C26.4889 46.7153 26.6954 46.4576 26.8467 46.1667C26.998 45.8758 27.0912 45.5576 27.1209 45.2301C27.1507 44.9027 27.1165 44.5725 27.0202 44.2585C26.9239 43.9445 26.7675 43.6528 26.5598 43.4002L17.6079 32.5002H46.8558C47.5098 32.5002 48.1371 32.2368 48.5995 31.768C49.062 31.2991 49.3218 30.6632 49.3218 30.0002C49.3218 29.3372 49.062 28.7013 48.5995 28.2324C48.1371 27.7636 47.5098 27.5002 46.8558 27.5002Z" fill="#231F20"/>
</g>
</svg>
