<svg width="30" height="30" viewBox="0 0 30 30" fill="none" xmlns="http://www.w3.org/2000/svg">
<rect width="30" height="30" fill="#F5F5F5"/>
<g id="&#208;&#158;&#209;&#129;&#208;&#189;&#208;&#190;&#208;&#178;&#208;&#189;&#208;&#190;&#208;&#185; &#208;&#178;&#208;&#176;&#209;&#128;&#208;&#184;&#208;&#176;&#208;&#189;&#209;&#130; &#208;&#180;&#208;&#184;&#208;&#183;&#208;&#176;&#208;&#185;&#208;&#189;&#208;&#176;" clip-path="url(#clip0_0_1)">
<rect width="1920" height="3204" transform="translate(-975 -3115)" fill="#EBEBE7"/>
<g id="body">
<g id="content" filter="url(#filter0_d_0_1)">
<rect x="-586" y="-3019" width="1222" height="3067" fill="#F3F3F3"/>
</g>
<g id="END">
<rect id="END_BLOCK" x="-586" y="-22" width="1223" height="70" fill="black"/>
<g id="&#208;&#161;&#209;&#129;&#209;&#139;&#208;&#187;&#208;&#186;&#208;&#176; &#208;&#189;&#208;&#176; &#208;&#179;&#208;&#184;&#209;&#130;">
<g id="&#240;&#159;&#166;&#134; icon &#34;github outline&#34;">
<path id="Vector" d="M17.8021 24.9785C17.4706 24.9785 17.1527 24.8468 16.9182 24.6124C16.6838 24.378 16.5521 24.06 16.5521 23.7285V20.4785C16.591 20.1047 16.551 19.7268 16.4347 19.3694C16.3184 19.012 16.1285 18.683 15.8771 18.4035C15.7215 18.2347 15.6154 18.0264 15.5704 17.8012C15.5254 17.5761 15.5432 17.343 15.622 17.1273C15.7007 16.9117 15.8374 16.7219 16.0169 16.5788C16.1964 16.4357 16.4119 16.3448 16.6396 16.316C19.6896 15.9535 22.5021 14.9785 22.5021 9.69102C22.5031 8.70361 22.2117 7.73803 21.6646 6.91602C21.1598 6.1593 20.9755 5.23335 21.1521 4.34102C21.2648 3.75892 21.2648 3.16061 21.1521 2.57852C20.2161 2.89499 19.3348 3.35461 18.5396 3.94102C18.3893 4.04778 18.2172 4.11996 18.0356 4.15238C17.8541 4.1848 17.6676 4.17665 17.4896 4.12852C15.2338 3.49109 12.8455 3.49109 10.5896 4.12852C10.4116 4.17665 10.2252 4.1848 10.0436 4.15238C9.86209 4.11996 9.68998 4.04778 9.53962 3.94102C8.73954 3.34781 7.84891 2.88772 6.90212 2.57852C6.78325 3.16 6.78325 3.75953 6.90212 4.34102C7.06598 5.24458 6.87333 6.17649 6.36462 6.94102C5.81995 7.7688 5.52887 8.73762 5.52712 9.72852C5.52712 14.591 7.87712 15.891 11.4021 16.341C11.6328 16.3696 11.8509 16.462 12.032 16.6077C12.213 16.7535 12.3499 16.9468 12.4271 17.166C12.4998 17.3787 12.5138 17.6071 12.4676 17.8271C12.4214 18.0471 12.3167 18.2505 12.1646 18.416C11.9215 18.6759 11.7349 18.9834 11.6166 19.319C11.4982 19.6546 11.4508 20.0111 11.4771 20.366V23.7285C11.4771 24.06 11.3454 24.378 11.111 24.6124C10.8766 24.8468 10.5586 24.9785 10.2271 24.9785C9.8956 24.9785 9.57766 24.8468 9.34324 24.6124C9.10882 24.378 8.97712 24.06 8.97712 23.7285V23.016C7.74883 23.1573 6.50466 22.9927 5.35535 22.5369C4.20604 22.0811 3.18724 21.3482 2.38962 20.4035C1.97963 19.9491 1.48772 19.5759 0.939624 19.3035C0.780396 19.2625 0.63081 19.1905 0.499407 19.0916C0.368005 18.9928 0.257358 18.869 0.173785 18.7274C0.0902126 18.5858 0.0353503 18.4291 0.0123307 18.2663C-0.0106889 18.1035 -0.00141473 17.9377 0.0396234 17.7785C0.0806614 17.6193 0.15266 17.4697 0.251508 17.3383C0.350356 17.2069 0.474118 17.0963 0.615727 17.0127C0.757337 16.9291 0.91402 16.8742 1.07683 16.8512C1.23964 16.8282 1.4054 16.8375 1.56462 16.8785C2.52619 17.2288 3.38537 17.8131 4.06462 18.5785C5.31462 19.8285 6.56462 20.9285 8.93962 20.4785C8.89787 19.8074 8.99576 19.1349 9.22712 18.5035C6.65212 17.8535 2.97712 16.0035 2.97712 9.75352C2.97383 8.27305 3.40876 6.82473 4.22712 5.59102C4.37913 5.36327 4.43734 5.08564 4.38962 4.81602C4.13703 3.46673 4.2803 2.07319 4.80212 0.803516C4.87303 0.634222 4.98034 0.482619 5.11645 0.359477C5.25255 0.236336 5.4141 0.144679 5.58962 0.091016C6.01462 -0.033984 7.53962 -0.283984 10.4271 1.59102C12.7646 1.02852 15.2022 1.02852 17.5396 1.59102C20.4271 -0.283984 21.9521 -0.046484 22.3646 0.091016C22.5401 0.144679 22.7017 0.236336 22.8378 0.359477C22.9739 0.482619 23.0812 0.634222 23.1521 0.803516C23.675 2.07731 23.8182 3.47515 23.5646 4.82852C23.5391 4.95046 23.538 5.07627 23.5616 5.19861C23.5853 5.32095 23.633 5.43735 23.7021 5.54102C24.5229 6.77828 24.9579 8.2313 24.9521 9.71602C24.9521 16.0535 21.3021 17.891 18.7021 18.466C18.9312 19.1368 19.0246 19.8463 18.9771 20.5535V23.7285C18.9777 24.0474 18.8563 24.3545 18.6379 24.5869C18.4195 24.8193 18.1205 24.9594 17.8021 24.9785Z" fill="white" fill-opacity="0.5"/>
</g>
</g>
</g>
</g>
</g>
<defs>
<filter id="filter0_d_0_1" x="-591" y="-3023" width="1232" height="3077" filterUnits="userSpaceOnUse" color-interpolation-filters="sRGB">
<feFlood flood-opacity="0" result="BackgroundImageFix"/>
<feColorMatrix in="SourceAlpha" type="matrix" values="0 0 0 0 0 0 0 0 0 0 0 0 0 0 0 0 0 0 127 0" result="hardAlpha"/>
<feOffset dy="1"/>
<feGaussianBlur stdDeviation="2.5"/>
<feComposite in2="hardAlpha" operator="out"/>
<feColorMatrix type="matrix" values="0 0 0 0 0 0 0 0 0 0 0 0 0 0 0 0 0 0 0.25 0"/>
<feBlend mode="normal" in2="BackgroundImageFix" result="effect1_dropShadow_0_1"/>
<feBlend mode="normal" in="SourceGraphic" in2="effect1_dropShadow_0_1" result="shape"/>
</filter>
<clipPath id="clip0_0_1">
<rect width="1920" height="3204" fill="white" transform="translate(-975 -3115)"/>
</clipPath>
</defs>
</svg>
