<svg width="32" height="29" viewBox="0 0 32 29" fill="none" xmlns="http://www.w3.org/2000/svg">
<g id="&#208;&#152;&#208;&#186;&#208;&#190;&#208;&#189;&#208;&#186;&#208;&#176; &#208;&#187;&#208;&#176;&#208;&#185;&#208;&#186;&#208;&#190;&#208;&#178;">
<path id="Vector" d="M15.9827 8.86634H16.4827C16.4827 6.77304 17.3404 4.94047 18.6913 3.58837C20.0875 2.23105 21.923 1.375 23.974 1.375C26.0673 1.375 27.8999 2.23267 29.252 3.58361C30.6093 4.97978 31.4654 6.81529 31.4654 8.86634C31.4654 10.9609 30.6067 12.7944 29.2544 14.1467L15.9827 27.4184L2.71345 14.1491C1.35608 12.753 0.5 10.9174 0.5 8.86634C0.5 6.77307 1.35765 4.94052 2.70857 3.58843C4.10475 2.23107 5.94027 1.375 7.99134 1.375C10.0846 1.375 11.9172 2.23266 13.2693 3.5836C14.6266 4.97977 15.4827 6.81528 15.4827 8.86634H15.9827Z" fill="black" fill-opacity="0.65" stroke="black"/>
</g>
</svg>
