<svg width="35" height="24" viewBox="0 0 35 24" fill="none" xmlns="http://www.w3.org/2000/svg">
<mask id="mask0_488_785" style="mask-type:alpha" maskUnits="userSpaceOnUse" x="0" y="0" width="35" height="24">
<path d="M2.1875 0C0.9625 0 0 0.748 0 1.7C0 2.652 0.9625 3.4 2.1875 3.4C3.4125 3.4 4.375 2.652 4.375 1.7C4.375 0.748 3.4125 0 2.1875 0ZM8.75 0V3.4H35V0H8.75ZM2.1875 6.8C0.9625 6.8 0 7.548 0 8.5C0 9.452 0.9625 10.2 2.1875 10.2C3.4125 10.2 4.375 9.452 4.375 8.5C4.375 7.548 3.4125 6.8 2.1875 6.8ZM8.75 6.8V10.2H35V6.8H8.75ZM2.1875 13.6C0.9625 13.6 0 14.348 0 15.3C0 16.252 0.9625 17 2.1875 17C3.4125 17 4.375 16.252 4.375 15.3C4.375 14.348 3.4125 13.6 2.1875 13.6ZM8.75 13.6V17H35V13.6H8.75ZM2.1875 20.4C0.9625 20.4 0 21.148 0 22.1C0 23.052 0.9625 23.8 2.1875 23.8C3.4125 23.8 4.375 23.052 4.375 22.1C4.375 21.148 3.4125 20.4 2.1875 20.4ZM8.75 20.4V23.8H35V20.4H8.75Z" fill="#070707"/>
</mask>
<g mask="url(#mask0_488_785)">
<path d="M2.1875 0C0.9625 0 0 0.748 0 1.7C0 2.652 0.9625 3.4 2.1875 3.4C3.4125 3.4 4.375 2.652 4.375 1.7C4.375 0.748 3.4125 0 2.1875 0ZM8.75 0V3.4H35V0H8.75ZM2.1875 6.8C0.9625 6.8 0 7.548 0 8.5C0 9.452 0.9625 10.2 2.1875 10.2C3.4125 10.2 4.375 9.452 4.375 8.5C4.375 7.548 3.4125 6.8 2.1875 6.8ZM8.75 6.8V10.2H35V6.8H8.75ZM2.1875 13.6C0.9625 13.6 0 14.348 0 15.3C0 16.252 0.9625 17 2.1875 17C3.4125 17 4.375 16.252 4.375 15.3C4.375 14.348 3.4125 13.6 2.1875 13.6ZM8.75 13.6V17H35V13.6H8.75ZM2.1875 20.4C0.9625 20.4 0 21.148 0 22.1C0 23.052 0.9625 23.8 2.1875 23.8C3.4125 23.8 4.375 23.052 4.375 22.1C4.375 21.148 3.4125 20.4 2.1875 20.4ZM8.75 20.4V23.8H35V20.4H8.75Z" fill="white"/>
</g>
</svg>
