<svg width="51" height="51" viewBox="0 0 51 51" fill="none" xmlns="http://www.w3.org/2000/svg">
<g id="&#208;&#151;&#208;&#178;&#208;&#181;&#208;&#183;&#208;&#180;&#208;&#176; &#208;&#190;&#209;&#134;&#208;&#181;&#208;&#189;&#208;&#186;&#208;&#184;">
<path id="Vector" d="M38.6741 50.3326C37.4412 50.3326 35.8593 49.9372 33.882 48.774L26.9265 44.6566C26.2054 44.2378 24.8096 44.2378 24.1117 44.6566L17.133 48.774C13.0155 51.2166 10.5962 50.2396 9.50288 49.4487C8.43281 48.6577 6.7579 46.6339 7.85124 41.9814L9.50288 34.8398C9.68898 34.0954 9.31678 32.8159 8.75848 32.2576L2.98937 26.4885C0.104811 23.6039 0.337436 21.1381 0.7329 19.9284C1.12836 18.7187 2.38454 16.5786 6.3857 15.904L13.8065 14.6711C14.5043 14.5547 15.5046 13.8103 15.807 13.1823L19.9245 4.97057C21.7855 1.22529 24.228 0.666992 25.5075 0.666992C26.7869 0.666992 29.2295 1.22529 31.0905 4.97057L35.1847 13.159C35.5104 13.7871 36.5107 14.5315 37.2085 14.6478L44.6293 15.8807C48.6537 16.5553 49.9099 18.6955 50.2821 19.9051C50.6543 21.1149 50.8869 23.5807 48.0256 26.4652L42.2565 32.2576C41.6982 32.8159 41.3493 34.0721 41.5121 34.8398L43.1638 41.9814C44.2338 46.6339 42.5822 48.6577 41.5121 49.4487C40.9306 49.8674 40.0001 50.3326 38.6741 50.3326ZM25.5075 40.8415C26.6473 40.8415 27.7872 41.1207 28.6944 41.6557L35.65 45.7732C37.6738 46.9828 38.9532 46.9828 39.4418 46.6339C39.9303 46.2849 40.2792 45.052 39.7674 42.7723L38.1158 35.6307C37.6738 33.6999 38.3949 31.2108 39.7907 29.7918L45.5598 24.0227C46.6997 22.8828 47.2114 21.7662 46.9788 20.9985C46.7229 20.2308 45.6529 19.6027 44.071 19.3468L36.6502 18.1139C34.859 17.8115 32.905 16.3692 32.0908 14.7408L27.9966 6.55242C27.2522 5.06362 26.3217 4.17964 25.5075 4.17964C24.6933 4.17964 23.7628 5.06362 23.0416 6.55242L18.9242 14.7408C18.11 16.3692 16.156 17.8115 14.3648 18.1139L6.96727 19.3468C5.38541 19.6027 4.31533 20.2308 4.05945 20.9985C3.80356 21.7662 4.3386 22.9061 5.47846 24.0227L11.2476 29.7918C12.6433 31.1875 13.3645 33.6999 12.9225 35.6307L11.2708 42.7723C10.7358 45.0753 11.108 46.2849 11.5965 46.6339C12.085 46.9828 13.3412 46.9596 15.3883 45.7732L22.3438 41.6557C23.2277 41.1207 24.3676 40.8415 25.5075 40.8415Z" fill="#292D32"/>
</g>
</svg>
