<svg width="35" height="24" viewBox="0 0 35 24" fill="none" xmlns="http://www.w3.org/2000/svg">
<path d="M2.1875 0.0999756C0.9625 0.0999756 0 0.847976 0 1.79998C0 2.75198 0.9625 3.49998 2.1875 3.49998C3.4125 3.49998 4.375 2.75198 4.375 1.79998C4.375 0.847976 3.4125 0.0999756 2.1875 0.0999756ZM8.75 0.0999756V3.49998H35V0.0999756H8.75ZM2.1875 6.89998C0.9625 6.89998 0 7.64798 0 8.59998C0 9.55198 0.9625 10.3 2.1875 10.3C3.4125 10.3 4.375 9.55198 4.375 8.59998C4.375 7.64798 3.4125 6.89998 2.1875 6.89998ZM8.75 6.89998V10.3H35V6.89998H8.75ZM2.1875 13.7C0.9625 13.7 0 14.448 0 15.4C0 16.352 0.9625 17.1 2.1875 17.1C3.4125 17.1 4.375 16.352 4.375 15.4C4.375 14.448 3.4125 13.7 2.1875 13.7ZM8.75 13.7V17.1H35V13.7H8.75ZM2.1875 20.5C0.9625 20.5 0 21.248 0 22.2C0 23.152 0.9625 23.9 2.1875 23.9C3.4125 23.9 4.375 23.152 4.375 22.2C4.375 21.248 3.4125 20.5 2.1875 20.5ZM8.75 20.5V23.9H35V20.5H8.75Z" fill="#070707" fill-opacity="0.7"/>
</svg>
