<svg width="41" height="41" viewBox="0 0 41 41" fill="none" xmlns="http://www.w3.org/2000/svg">
<g id="&#208;&#152;&#208;&#186;&#208;&#190;&#208;&#189;&#208;&#186;&#208;&#176; &#209;&#132;&#208;&#176;&#208;&#185;&#208;&#187;&#208;&#190;&#208;&#178;">
<path id="Vector" d="M29.8023 40.9756H11.1977C2.99302 40.9756 0.5 38.4826 0.5 30.2779V11.6733C0.5 3.46861 2.99302 0.975586 11.1977 0.975586H13.9884C17.2442 0.975586 18.2674 2.03605 19.5698 3.76628L22.3605 7.48721C22.9744 8.30582 23.0674 8.41745 24.2209 8.41745H29.8023C38.007 8.41745 40.5 10.9105 40.5 19.1151V30.2779C40.5 38.4826 38.007 40.9756 29.8023 40.9756ZM11.1977 3.76628C4.55581 3.76628 3.2907 5.0314 3.2907 11.6733V30.2779C3.2907 36.9198 4.55581 38.1849 11.1977 38.1849H29.8023C36.4442 38.1849 37.7093 36.9198 37.7093 30.2779V19.1151C37.7093 12.4733 36.4442 11.2081 29.8023 11.2081H24.2209C21.8395 11.2081 21.0581 10.3895 20.1279 9.16163L17.3372 5.4407C16.3698 4.15698 16.0907 3.76628 13.9884 3.76628H11.1977Z" fill="#F3C23C"/>
</g>
</svg>
