<svg width="60" height="60" viewBox="0 0 60 60" fill="none" xmlns="http://www.w3.org/2000/svg">
<g id="&#208;&#152;&#208;&#186;&#208;&#190;&#208;&#189;&#208;&#186;&#208;&#176; &#208;&#189;&#208;&#176;&#208;&#191;&#208;&#184;&#209;&#129;&#208;&#176;&#209;&#130;&#209;&#140; &#208;&#190;&#209;&#130;&#208;&#183;&#209;&#139;&#208;&#178;">
<path id="Vector" d="M48.4998 18.3501L41.6498 11.5001C40.7557 10.6604 39.5842 10.1785 38.3581 10.1463C37.1319 10.114 35.9367 10.5336 34.9998 11.3251L12.4998 33.8251C11.6917 34.64 11.1885 35.7081 11.0748 36.8501L9.99977 47.2751C9.96609 47.6413 10.0136 48.0104 10.1389 48.3561C10.2642 48.7018 10.4643 49.0156 10.7248 49.2751C10.9584 49.5068 11.2354 49.6902 11.54 49.8146C11.8446 49.939 12.1707 50.002 12.4998 50.0001H12.7248L23.1498 49.0501C24.2918 48.9364 25.3599 48.4332 26.1748 47.6251L48.6748 25.1251C49.5481 24.2026 50.02 22.9714 49.9872 21.7015C49.9544 20.4315 49.4195 19.2264 48.4998 18.3501ZM39.9998 26.7001L33.2998 20.0001L38.1748 15.0001L44.9998 21.8251L39.9998 26.7001Z" fill="#292D32"/>
</g>
</svg>
