<svg width="50" height="50" viewBox="0 0 50 50" fill="none" xmlns="http://www.w3.org/2000/svg">
<g id="&#208;&#158;&#209;&#134;&#208;&#181;&#208;&#189;&#208;&#181;&#208;&#181;&#208;&#189;&#208;&#190;=&#208;&#157;&#208;&#181;&#209;&#130; &#208;&#190;&#209;&#134;&#208;&#181;&#208;&#189;&#208;&#186;&#208;&#184;">
<path id="Vector" d="M38.1741 49.6656C36.9412 49.6656 35.3593 49.2702 33.382 48.107L26.4265 43.9896C25.7054 43.5708 24.3096 43.5708 23.6117 43.9896L16.633 48.107C12.5155 50.5496 10.0962 49.5726 9.00288 48.7817C7.93281 47.9907 6.2579 45.9669 7.35124 41.3144L9.00288 34.1728C9.18898 33.4284 8.81678 32.1489 8.25848 31.5906L2.48937 25.8215C-0.395189 22.937 -0.162564 20.4711 0.2329 19.2614C0.628363 18.0517 1.88454 15.9116 5.8857 15.237L13.3065 14.0041C14.0043 13.8877 15.0046 13.1433 15.307 12.5153L19.4245 4.30357C21.2855 0.558301 23.728 0 25.0075 0C26.2869 0 28.7295 0.558301 30.5905 4.30357L34.6847 12.492C35.0104 13.1201 36.0107 13.8645 36.7085 13.9808L44.1293 15.2137C48.1537 15.8883 49.4099 18.0285 49.7821 19.2381C50.1543 20.4479 50.3869 22.9137 47.5256 25.7982L41.7565 31.5906C41.1982 32.1489 40.8493 33.4051 41.0121 34.1728L42.6638 41.3144C43.7338 45.9669 42.0822 47.9907 41.0121 48.7817C40.4306 49.2004 39.5001 49.6656 38.1741 49.6656ZM25.0075 40.1745C26.1473 40.1745 27.2872 40.4537 28.1944 40.9887L35.15 45.1062C37.1738 46.3158 38.4532 46.3158 38.9418 45.9669C39.4303 45.6179 39.7792 44.385 39.2674 42.1053L37.6158 34.9637C37.1738 33.0329 37.8949 30.5438 39.2907 29.1248L45.0598 23.3557C46.1997 22.2158 46.7114 21.0992 46.4788 20.3315C46.2229 19.5638 45.1529 18.9357 43.571 18.6798L36.1502 17.4469C34.359 17.1445 32.405 15.7022 31.5908 14.0738L27.4966 5.88543C26.7522 4.39662 25.8217 3.51265 25.0075 3.51265C24.1933 3.51265 23.2628 4.39662 22.5416 5.88543L18.4242 14.0738C17.61 15.7022 15.656 17.1445 13.8648 17.4469L6.46727 18.6798C4.88541 18.9357 3.81533 19.5638 3.55945 20.3315C3.30356 21.0992 3.8386 22.2391 4.97846 23.3557L10.7476 29.1248C12.1433 30.5205 12.8645 33.0329 12.4225 34.9637L10.7708 42.1053C10.2358 44.4083 10.608 45.6179 11.0965 45.9669C11.585 46.3158 12.8412 46.2926 14.8883 45.1062L21.8438 40.9887C22.7277 40.4537 23.8676 40.1745 25.0075 40.1745Z" fill="#292D32"/>
</g>
</svg>
