<svg width="50" height="51" viewBox="0 0 50 51" fill="none" xmlns="http://www.w3.org/2000/svg">
<g id="&#208;&#158;&#209;&#134;&#208;&#181;&#208;&#189;&#208;&#181;&#208;&#181;&#208;&#189;&#208;&#190;=&#208;&#149;&#209;&#129;&#209;&#130;&#209;&#140; &#208;&#190;&#209;&#134;&#208;&#181;&#208;&#189;&#208;&#186;&#208;&#176;">
<path id="Vector" d="M38.1741 50.3312C36.9412 50.3312 35.3593 49.9357 33.382 48.7726L26.4265 44.6551C25.7054 44.2364 24.3096 44.2364 23.6117 44.6551L16.633 48.7726C12.5155 51.2151 10.0962 50.2381 9.00288 49.4472C7.93281 48.6563 6.2579 46.6324 7.35124 41.9799L9.00288 34.8383C9.18898 34.0939 8.81678 32.8145 8.25848 32.2562L2.48937 26.487C-0.395189 23.6025 -0.162564 21.1367 0.2329 19.9269C0.628363 18.7173 1.88454 16.5771 5.8857 15.9025L13.3065 14.6696C14.0043 14.5533 15.0046 13.8089 15.307 13.1808L19.4245 4.9691C21.2855 1.22383 23.728 0.665527 25.0075 0.665527C26.2869 0.665527 28.7295 1.22383 30.5905 4.9691L34.6847 13.1575C35.0104 13.7856 36.0107 14.53 36.7085 14.6463L44.1293 15.8792C48.1537 16.5539 49.4099 18.694 49.7821 19.9037C50.1543 21.1134 50.3869 23.5792 47.5256 26.4638L41.7565 32.2562C41.1982 32.8145 40.8493 34.0706 41.0121 34.8383L42.6638 41.9799C43.7338 46.6324 42.0822 48.6563 41.0121 49.4472C40.4306 49.8659 39.5001 50.3312 38.1741 50.3312ZM25.0075 40.84C26.1473 40.84 27.2872 41.1192 28.1944 41.6542L35.15 45.7717C37.1738 46.9814 38.4532 46.9814 38.9418 46.6324C39.4303 46.2835 39.7792 45.0506 39.2674 42.7708L37.6158 35.6292C37.1738 33.6984 37.8949 31.2093 39.2907 29.7903L45.0598 24.0212C46.1997 22.8813 46.7114 21.7647 46.4788 20.9971C46.2229 20.2293 45.1529 19.6013 43.571 19.3454L36.1502 18.1124C34.359 17.81 32.405 16.3678 31.5908 14.7394L27.4966 6.55095C26.7522 5.06215 25.8217 4.17817 25.0075 4.17817C24.1933 4.17817 23.2628 5.06215 22.5416 6.55095L18.4242 14.7394C17.61 16.3678 15.656 17.81 13.8648 18.1124L6.46727 19.3454C4.88541 19.6013 3.81533 20.2293 3.55945 20.9971C3.30356 21.7647 3.8386 22.9046 4.97846 24.0212L10.7476 29.7903C12.1433 31.1861 12.8645 33.6984 12.4225 35.6292L10.7708 42.7708C10.2358 45.0738 10.608 46.2835 11.0965 46.6324C11.585 46.9814 12.8412 46.9581 14.8883 45.7717L21.8438 41.6542C22.7277 41.1192 23.8676 40.84 25.0075 40.84Z" fill="#F3C23C"/>
</g>
</svg>
