<svg width="181" height="45" viewBox="0 0 181 45" fill="none" xmlns="http://www.w3.org/2000/svg">
<rect width="181" height="45" rx="10" fill="#F5C518"/>
<path d="M9.49 33V12H13.51L22.45 26.82H20.32L29.11 12H33.1L33.16 33H28.6L28.57 18.99H29.41L22.39 30.78H20.2L13.03 18.99H14.05V33H9.49ZM46.3923 33.24C44.6723 33.24 43.1423 32.88 41.8023 32.16C40.4823 31.44 39.4323 30.46 38.6523 29.22C37.8923 27.96 37.5123 26.53 37.5123 24.93C37.5123 23.31 37.8923 21.88 38.6523 20.64C39.4323 19.38 40.4823 18.4 41.8023 17.7C43.1423 16.98 44.6723 16.62 46.3923 16.62C48.0923 16.62 49.6123 16.98 50.9523 17.7C52.2923 18.4 53.3423 19.37 54.1023 20.61C54.8623 21.85 55.2423 23.29 55.2423 24.93C55.2423 26.53 54.8623 27.96 54.1023 29.22C53.3423 30.46 52.2923 31.44 50.9523 32.16C49.6123 32.88 48.0923 33.24 46.3923 33.24ZM46.3923 29.4C47.1723 29.4 47.8723 29.22 48.4923 28.86C49.1123 28.5 49.6023 27.99 49.9623 27.33C50.3223 26.65 50.5023 25.85 50.5023 24.93C50.5023 23.99 50.3223 23.19 49.9623 22.53C49.6023 21.87 49.1123 21.36 48.4923 21C47.8723 20.64 47.1723 20.46 46.3923 20.46C45.6123 20.46 44.9123 20.64 44.2923 21C43.6723 21.36 43.1723 21.87 42.7923 22.53C42.4323 23.19 42.2523 23.99 42.2523 24.93C42.2523 25.85 42.4323 26.65 42.7923 27.33C43.1723 27.99 43.6723 28.5 44.2923 28.86C44.9123 29.22 45.6123 29.4 46.3923 29.4ZM63.2111 33L56.4311 16.86H61.2611L66.9011 30.75H64.5011L70.3511 16.86H74.8511L68.0411 33H63.2111ZM77.6608 33V16.86H82.3408V33H77.6608ZM80.0008 14.61C79.1408 14.61 78.4408 14.36 77.9008 13.86C77.3608 13.36 77.0908 12.74 77.0908 12C77.0908 11.26 77.3608 10.64 77.9008 10.14C78.4408 9.64 79.1408 9.39 80.0008 9.39C80.8608 9.39 81.5608 9.63 82.1008 10.11C82.6408 10.57 82.9108 11.17 82.9108 11.91C82.9108 12.69 82.6408 13.34 82.1008 13.86C81.5808 14.36 80.8808 14.61 80.0008 14.61ZM95.5942 33.24C93.7542 33.24 92.1342 32.88 90.7342 32.16C89.3542 31.44 88.2842 30.46 87.5242 29.22C86.7642 27.96 86.3842 26.53 86.3842 24.93C86.3842 23.31 86.7542 21.88 87.4942 20.64C88.2542 19.38 89.2842 18.4 90.5842 17.7C91.8842 16.98 93.3542 16.62 94.9942 16.62C96.5742 16.62 97.9942 16.96 99.2542 17.64C100.534 18.3 101.544 19.26 102.284 20.52C103.024 21.76 103.394 23.25 103.394 24.99C103.394 25.17 103.384 25.38 103.364 25.62C103.344 25.84 103.324 26.05 103.304 26.25H90.1942V23.52H100.844L99.0442 24.33C99.0442 23.49 98.8742 22.76 98.5342 22.14C98.1942 21.52 97.7242 21.04 97.1242 20.7C96.5242 20.34 95.8242 20.16 95.0242 20.16C94.2242 20.16 93.5142 20.34 92.8942 20.7C92.2942 21.04 91.8242 21.53 91.4842 22.17C91.1442 22.79 90.9742 23.53 90.9742 24.39V25.11C90.9742 25.99 91.1642 26.77 91.5442 27.45C91.9442 28.11 92.4942 28.62 93.1942 28.98C93.9142 29.32 94.7542 29.49 95.7142 29.49C96.5742 29.49 97.3242 29.36 97.9642 29.1C98.6242 28.84 99.2242 28.45 99.7642 27.93L102.254 30.63C101.514 31.47 100.584 32.12 99.4642 32.58C98.3442 33.02 97.0542 33.24 95.5942 33.24ZM122.14 12H127V33H122.14V12ZM112.6 33H107.74V12H112.6V33ZM122.5 24.39H112.24V20.28H122.5V24.39ZM139.349 33.24C138.009 33.24 136.809 32.98 135.749 32.46C134.709 31.94 133.899 31.15 133.319 30.09C132.739 29.01 132.449 27.64 132.449 25.98V16.86H137.129V25.29C137.129 26.63 137.409 27.62 137.969 28.26C138.549 28.88 139.359 29.19 140.399 29.19C141.119 29.19 141.759 29.04 142.319 28.74C142.879 28.42 143.319 27.94 143.639 27.3C143.959 26.64 144.119 25.82 144.119 24.84V16.86H148.799V33H144.359V28.56L145.169 29.85C144.629 30.97 143.829 31.82 142.769 32.4C141.729 32.96 140.589 33.24 139.349 33.24ZM163.574 33.24C162.154 33.24 160.934 32.94 159.914 32.34C158.894 31.74 158.114 30.83 157.574 29.61C157.034 28.37 156.764 26.81 156.764 24.93C156.764 23.03 157.044 21.47 157.604 20.25C158.184 19.03 158.984 18.12 160.004 17.52C161.024 16.92 162.214 16.62 163.574 16.62C165.094 16.62 166.454 16.96 167.654 17.64C168.874 18.32 169.834 19.28 170.534 20.52C171.254 21.76 171.614 23.23 171.614 24.93C171.614 26.61 171.254 28.07 170.534 29.31C169.834 30.55 168.874 31.52 167.654 32.22C166.454 32.9 165.094 33.24 163.574 33.24ZM154.034 33V10.74H158.714V20.13L158.414 24.9L158.504 29.7V33H154.034ZM162.764 29.4C163.544 29.4 164.234 29.22 164.834 28.86C165.454 28.5 165.944 27.99 166.304 27.33C166.684 26.65 166.874 25.85 166.874 24.93C166.874 23.99 166.684 23.19 166.304 22.53C165.944 21.87 165.454 21.36 164.834 21C164.234 20.64 163.544 20.46 162.764 20.46C161.984 20.46 161.284 20.64 160.664 21C160.044 21.36 159.554 21.87 159.194 22.53C158.834 23.19 158.654 23.99 158.654 24.93C158.654 25.85 158.834 26.65 159.194 27.33C159.554 27.99 160.044 28.5 160.664 28.86C161.284 29.22 161.984 29.4 162.764 29.4Z" fill="black"/>
</svg>
