<svg width="17" height="17" viewBox="0 0 17 17" fill="none" xmlns="http://www.w3.org/2000/svg">
<path id="Vector" d="M7.62893 1.42706C7.92369 0.496245 9.24086 0.496248 9.53562 1.42706L10.7362 5.2184C10.8678 5.63404 11.2536 5.9165 11.6895 5.9165H15.3423C16.275 5.9165 16.6999 7.08061 15.9864 7.68142L12.6556 10.4863C12.3464 10.7468 12.2243 11.1677 12.3464 11.5532L13.4782 15.1273C13.7806 16.0824 12.647 16.8394 11.8807 16.1942L9.22641 13.9589C8.85419 13.6455 8.31036 13.6455 7.93814 13.9589L5.28382 16.1942C4.51757 16.8394 3.38392 16.0824 3.68634 15.1273L4.81817 11.5532C4.94022 11.1677 4.8182 10.7468 4.50896 10.4863L1.17811 7.68141C0.464645 7.08061 0.889507 5.9165 1.82224 5.9165H5.475C5.91099 5.9165 6.29672 5.63404 6.42834 5.2184L7.62893 1.42706Z" fill="#F3C23C"/>
</svg>
